{"title":"Peaky.Blinders.S03E06.WEBRip.x264.RecorDevil.mp4","uid":14788503,"size":329909432,"categoryP":"video","categoryS":"tv_shows","magnet":"?xt=urn:btih:9d9d645235dca4a037e4d6211450a7f3dac19460&amp;dn=Peaky.Blinders.S03E06.WEBRip.x264.RecorDevil.mp4&amp;tr=udp%3A%2F%2Ftracker.leechers-paradise.org%3A6969&amp;tr=udp%3A%2F%2Fzer0day.ch%3A1337&amp;tr=udp%3A%2F%2Fopen.demonii.com%3A1337&amp;tr=udp%3A%2F%2Ftracker.coppersurfer.tk%3A6969&amp;tr=udp%3A%2F%2Fexodus.desync.com%3A6969","seeders":1,"leechers":0,"uploader":null,"files":1,"time":1465041393,"description":"Format                                   : MPEG-4\r\nFormat profile                           : QuickTime\r\nCodec ID                                 : qt  \r\nFile size                                : 315 MiB\r\nDuration                                 : 57mn 38s\r\nOverall bit rate                         : 763 Kbps\r\nEncoded date                             : UTC 2016-06-01 18:44:52\r\nTagged date                              : UTC 2016-06-01 18:45:00\r\nWriting library                          : Apple QuickTime\r\n\r\nVideo\r\nID                                       : 1\r\nFormat                                   : AVC\r\nFormat/Info                              : Advanced Video Codec\r\nFormat profile                           :   \r\nFormat settings, CABAC                   : No\r\nFormat settings, ReFrames                : 2 frames\r\nFormat settings, GOP                     : M=2, N=24\r\nCodec ID                                 : avc1\r\nCodec ID/Info                            : Advanced Video Coding\r\nDuration                                 : 57mn 38s\r\nBit rate                                 : 608 Kbps\r\nWidth                                    : 720 pixels\r\nHeight                                   : 404 pixels\r\nDisplay aspect ratio                     : 16:9\r\nFrame rate mode                          : Constant\r\nFrame rate                               : 30.000 fps\r\nColor space                              : YUV\r\nChroma subsampling                       : 4:2:0\r\nBit depth                                : 8 bits\r\nScan type                                : Progressive\r\nBits/(Pixel*Frame)                       : 0.070\r\nStream size                              : 251 MiB (80%)\r\nLanguage                                 : English\r\nEncoded date                             : UTC 2016-06-01 17:14:41\r\nTagged date                              : UTC 2016-06-01 18:45:00\r\nColor primaries                          : BT.601 NTSC\r\nTransfer characteristics                 : BT.709\r\nMatrix coefficients                      : BT.601\r\n\r\nAudio\r\nID                                       : 2\r\nFormat                                   : AAC\r\nFormat/Info                              : Advanced Audio Codec\r\nFormat profile                           : LC\r\nCodec ID                                 : 40\r\nDuration                                 : 57mn 38s\r\nSource duration                          : 57mn 38s\r\nBit rate mode                            : Constant\r\nBit rate                                 : 149 Kbps\r\nNominal bit rate                         : 160 Kbps\r\nChannel(s)                               : 2 channels\r\nChannel positions                        : Front: L R\r\nSampling rate                            : 48.0 KHz\r\nCompression mode                         : Lossy\r\nStream size                              : 61.6 MiB (20%)\r\nSource stream size                       : 61.6 MiB (20%)\r\nLanguage                                 : English\r\nEncoded date                             : UTC 2016-06-01 17:14:41\r\nTagged date                              : UTC 2016-06-01 18:45:00","torrent":{"xt":"urn:btih:9d9d645235dca4a037e4d6211450a7f3dac19460","amp;dn":"Peaky.Blinders.S03E06.WEBRip.x264.RecorDevil.mp4","amp;tr":["udp%3A%2F%2Ftracker.leechers-paradise.org%3A6969","udp%3A%2F%2Fzer0day.ch%3A1337","udp%3A%2F%2Fopen.demonii.com%3A1337","udp%3A%2F%2Ftracker.coppersurfer.tk%3A6969","udp%3A%2F%2Fexodus.desync.com%3A6969"],"infoHash":"9d9d645235dca4a037e4d6211450a7f3dac19460","infoHashBuffer":{"type":"Buffer","data":[157,157,100,82,53,220,164,160,55,228,214,33,20,80,167,243,218,193,148,96]},"announce":[],"urlList":[]}}